<svg version="1.2" xmlns="http://www.w3.org/2000/svg" viewBox="0 0 688 222" width="688" height="222"><defs><clipPath clipPathUnits="userSpaceOnUse" id="cp1"><path d="m-616-429h1920v1080h-1920z"/></clipPath></defs><style>.a{fill:#14071e}.b{fill:#d49d60}</style><g clip-path="url(#cp1)"><path fill-rule="evenodd" class="a" d="m68.7 105.1c8.2 1.4 15.5 12 15.5 25.7 0 29.1-25.8 25.8-37.1 10.2-6.2 24.5-18 31.6-46.4 24.5v-0.6c15.2-6.4 28.3-10.6 38.9-24.2 6.6-8.5 6.1-13.8 10.9-22.3 6.8-12 14.1-14 18.2-13.3zm-18.5 21.9c7.4 8.4 31.1 9.3 31.1 5.1 0-7.8-7.2-12.2-15.2-12.2-5.7 0-11.8 2.3-15.9 7.1zm45.6 25.3c1.8-8.1 1.9-16.2 1.9-24.2v-54.2l7.5-11.3h1.4v55.3c0 17.5-5.9 27-9.8 34.4zm46.8-53.3l-8.2 9.1-10.5-9.4 8.1-9.1zm11.2 53.2c-1.4 0-8.2 0-13.4-3.9-1.5 17.1-12.3 32-21.9 32-7.8 0-18.9-8-22.1-10.3v-1.4q3 0.3 5.9 0.3c19.4 0 34.9-9.8 34.9-20.9 0-6.9-6.5-12.6-11.3-18.7l6.7-13.6h1.3c1.1 2.4 2 4.5 3 6.4 4.2 8.6 7.3 11.8 16.9 11.8v0.1c16.6-0.2 33.5-2.6 54.1-9.3-12.7-2.9-23.6-8.9-31.8-10.9-5.9-1.4-11.5 2.1-12 10.3h-1c-3.7-15.3 5-24.8 14.5-23.9 10.8 1.1 17.6 7.5 30 11.6 5.1 1.7 10 2.9 16.6 2.8l0.3 1-3.4 13.3c-13.7-2.9-39.6 23.2-67.3 23.3zm26.1-101.8c0-15 14.5-15.6 14.5 0.2 0 11.5-10.3 21.5-18.8 17l-5.3-3.4v-0.4c12.8-0.3 21.2-4.5 22.7-9.1-7.2 6.4-13.1 1.5-13.1-4.3zm0.9-1.1c0 3.6 7.5 5 12.5 1.2-1.3-7.4-12.5-7.1-12.5-1.2zm18.2 37.4l-8.1 9.1-10.6-9.4 8.2-9.1zm80.7 4.2l10.6 9.4-8.2 9.1-10.5-9.4zm1.7 90.8c-17.7 0-26.8-11-26.8-26.3 0-9.1 3.7-22.1 8.3-28.9h2c-4.1 6-6 15-6 18.8 0 10.9 7.8 17.8 25.6 17.8 11.7 0 27-6 27-12.4 0-7.8-10.1-22-14.7-28.8l6.9-12.7h1.8c6.3 11.1 9.4 23.2 9.4 34.3 0 20.9-11.2 38.2-33.5 38.2zm62.1-29.6c-14.2 0-19.6-7-19.7-24.2l-0.3-31.8c0-9.4-0.6-18.6-1.8-21.4v-0.9l8.3-12.4h1.1c0 10.3 0 18.2 0 28.1l-0.1 31.1c0 7.3 1.7 13.2 12.5 13.2v0.1l0.2-0.1h22c7.4 0 20.2-0.7 20.2-3.9 0-2.5-8.4-10.1-11.4-12.7l6.7-14.8h2c4.4 8.6 6.3 18.9 6.3 26.7 0 12.4-4.6 22.9-23.8 23h-22l-0.2-0.1zm6.8-56l23.8-5.7-1.3 5.5-23.9 5.7zm7 70.8l6.7-7.5 9.6 8.6-7.4 8.2-9.2-8.2-6.7 7.5-9.6-8.6 7.4-8.3zm59.9-79l10.5 9.5-8.1 9.1-10.6-9.5zm1.9 25.5h1.7c6.1 11.1 8.2 20.8 8.2 29.9 0 20.7-9.8 35.7-23.5 35.7-4.8 0-14-4.7-19-9.6v-1.8q3.3 0.3 7.1 0.3c17.8 0 32.1-12.7 32.1-23.4 0-5-8.4-13.4-12.1-16.6zm26.9-20.8l7.5-11.3h1.4v47.1c0 7.7-4 16.5-7.8 23.9h-1.1zm15.1-28.3l-2.3 7.7c-4.8 0.5-12.7 1.9-18.9 3.2v-0.6c1.1-1.6 2.8-3.8 5.9-5.3-7-4.8-2.9-19 6.8-19 5.7 0 5.9 6 5.6 9.3l-0.4 0.3c-1.8-1.2-4.3-2-6.8-2-3.1 0-6.3 1.3-7.3 2.5 0.4 3.2 8.1 4.7 17.1 3.3z"/><path class="b" d="m559.5 162v-41.8l-24.2 20.9zm-24.2 29.9l24.2-20.9-24.2-20.9zm24.2-89.9v-41.8l-24.2 20.9zm-24.1 29.9l24.1-20.9-24.1-20.9zm0-60l24.1-20.9-24.1-20.9zm-32 90l24.2-20.9-24.2-20.9zm0-60l24.2-20.9-24.2-20.9zm24.2 30v-41.8l-24.2 20.9zm39.8 30.1l24.2-20.9-24.2-20.9zm24.2 29.9v-41.8l-24.2 20.9zm-24.2-90l24.2-20.8-24.2-20.9zm24.2 29.9v-41.8l-24.2 20.9zm0-60v-41.8l-24.1 20.9zm-24.2 150.1l24.2-20.9-24.2-20.9zm0-180.1l24.2-20.9-24.2-20.9zm63.9 120.2l24.2-20.9-24.2-20.9zm24.2 29.9v-41.8l-24.2 20.9zm-24.1-90l24.1-20.9-24.1-20.9zm24.1 30v-41.8l-24.1 20.9zm0-60v-41.8l-24.2 20.9zm32 90v-41.8l-24.2 20.9zm0-101.8l-24.1 20.9 24.1 20.9zm-24.1 71.7l24.1-20.9-24.1-20.9zm-39.8 30.1v-41.8l-24.2 20.9zm-24.1 30l24.1-20.9-24.1-20.9zm24.1-90v-41.8l-24.1 20.9zm-24.2 30l24.2-20.9-24.2-20.9zm0-60.1l24.2-20.9-24.2-20.9zm24.2 150.2v-41.8l-24.2 20.9zm0-180.1v-41.8l-24.1 20.9z"/></g></svg>